<?xml version="1.0" encoding="UTF-8"?>
<svg version="1.1" xmlns="http://www.w3.org/2000/svg" width="96" height="96">
<path d="M0 0 C31.02 0 62.04 0 94 0 C87.25 7.875 87.25 7.875 83.73876953 11.37475586 C82.95841339 12.15503647 82.17805725 12.93531708 81.37405396 13.73924255 C80.55194427 14.55619095 79.72983459 15.37313934 78.8828125 16.21484375 C78.02565643 17.07058487 77.16850037 17.92632599 76.28536987 18.80799866 C73.56760046 21.52020465 70.84636109 24.2288983 68.125 26.9375 C66.27320658 28.78427369 64.42164166 30.63127653 62.5703125 32.47851562 C58.04951565 36.98833201 53.52587054 41.49527569 49 46 C50.49420592 49.48916423 52.48734616 51.72491256 55.17431641 54.38549805 C56.03505768 55.24286057 56.89579895 56.10022308 57.78262329 56.98356628 C58.71287323 57.9003566 59.64312317 58.81714691 60.6015625 59.76171875 C61.56328246 60.71716593 62.52448751 61.67313167 63.48519897 62.6295929 C66.00940807 65.14052471 68.53913242 67.64581903 71.07049561 70.14953613 C75.13058861 74.16642818 79.18388414 78.19015266 83.23405075 82.21705055 C84.65209681 83.62483961 86.07366982 85.02907311 87.49526978 86.43327332 C88.7769252 87.70513237 88.7769252 87.70513237 90.08447266 89.00268555 C90.84233063 89.7522905 91.6001886 90.50189545 92.38101196 91.2742157 C94 93 94 93 94 94 C62.98 94 31.96 94 0 94 C0 62.98 0 31.96 0 0 Z " fill="#30352E" transform="translate(1,1)"/>
<path d="M0 0 C31.02 0 62.04 0 94 0 C87.25 7.875 87.25 7.875 83.64697266 11.46655273 C82.84659576 12.2668541 82.04621887 13.06715546 81.22158813 13.89170837 C80.37760468 14.73053055 79.53362122 15.56935272 78.6640625 16.43359375 C77.78471039 17.31153091 76.90535828 18.18946808 75.99935913 19.0940094 C73.21025942 21.87754412 70.41768982 24.65756769 67.625 27.4375 C65.7247458 29.33216665 63.82525347 31.2275963 61.92578125 33.12304688 C57.28649396 37.75135161 52.64435833 42.37678421 48 47 C44.47435171 45.4939923 42.20467722 43.45257205 39.50683594 40.74975586 C38.62622498 39.87222153 37.74561401 38.99468719 36.83831787 38.09056091 C35.88682175 37.13216901 34.9355118 36.17359225 33.984375 35.21484375 C33.00396606 34.23324229 32.02318672 33.25201066 31.04205322 32.27113342 C28.99139099 30.21890976 26.94412518 28.16337735 24.89941406 26.10522461 C22.27258243 23.46134756 19.63915954 20.82415752 17.00341415 18.18916988 C14.98032484 16.16580938 12.95984646 14.13985906 10.94025421 12.1130085 C9.96956986 11.13913347 8.99827113 10.16587042 8.02635956 9.19322014 C6.67357592 7.83828035 5.32448179 6.4796599 3.97558594 5.12084961 C3.20599548 4.34744736 2.43640503 3.5740451 1.64349365 2.77720642 C0 1 0 1 0 0 Z " fill="#879586" transform="translate(1,1)"/>
<path d="M0 0 C7.875 6.75 7.875 6.75 11.46655273 10.35302734 C12.2668541 11.15340424 13.06715546 11.95378113 13.89170837 12.77841187 C14.73053055 13.62239532 15.56935272 14.46637878 16.43359375 15.3359375 C17.31153091 16.21528961 18.18946808 17.09464172 19.0940094 18.00064087 C21.87754412 20.78974058 24.65756769 23.58231018 27.4375 26.375 C29.33216665 28.2752542 31.2275963 30.17474653 33.12304688 32.07421875 C37.75135161 36.71350604 42.37678421 41.35564167 47 46 C46.05398926 46.9449231 46.05398926 46.9449231 45.08886719 47.90893555 C41.7905817 51.20714884 38.49981033 54.51283904 35.20806885 57.81758118 C32.00811904 61.02909756 28.80634475 64.23879048 25.60394669 67.44786549 C23.1739385 69.88312575 20.74489004 72.31932866 18.31787109 74.75756836 C15.51152938 77.57679423 12.70119812 80.3920235 9.890625 83.20703125 C9.01464661 84.08817093 8.13866821 84.96931061 7.23614502 85.87715149 C6.02918976 87.08422005 6.02918976 87.08422005 4.79785156 88.31567383 C4.0867926 89.0289534 3.37573364 89.74223297 2.64312744 90.47712708 C1 92 1 92 0 92 C0 61.64 0 31.28 0 0 Z " fill="#455442" transform="translate(1,2)"/>
</svg>
